<?xml version='1.0' encoding='UTF-8'?>
<svg x="0px" y="0px" viewBox="0 0 32 32" version="1.1" xmlns="http://www.w3.org/2000/svg" xmlns:xlink="http://www.w3.org/1999/xlink" xml:space="preserve" id="Set_Detail_Range" style="enable-background:new 0 0 32 32">
  <style type="text/css">
	.Yellow{fill:#FFB115;}
	.Black{fill:#727272;}
	.st0{opacity:0.5;}
</style>
  <g class="st0">
    <path d="M2,6V0h8v6H2z M12,0v6h8V0H12z M22,6h8V0h-8V6z M22,30h8v-6h-8V30z M10,30v-6H2v6H10z M12,24v6h8v-6H12z" class="Black" />
  </g>
  <path d="M10,14H2V8h8V14z M20,8h-8v6h8V8z M30,8h-8v6h8V8z M10,22H2v-6h8V22z M20,16h-8v6h8V16z M30,16h-8v6h8V16z" class="Yellow" />
</svg>